<?xml version="1.0" encoding="utf-8"?>
<!-- Generator: Adobe Illustrator 24.3.0, SVG Export Plug-In . SVG Version: 6.00 Build 0)  -->
<svg version="1.1" id="Layer_1" xmlns="http://www.w3.org/2000/svg" xmlns:xlink="http://www.w3.org/1999/xlink" x="0px" y="0px"
	 viewBox="0 0 359.6 81.4" style="enable-background:new 0 0 359.6 81.4;" xml:space="preserve">
<style type="text/css">
	.st0{fill:#FFFFFF;}
	.st1{fill:#CC4E24;}
</style>
<g>
	<g>
		<path class="st0" d="M99.3,44.9v1.5c0,4.5-0.8,10.9-9.2,10.9c-7.4,0-8.9-4.6-8.9-10.7v-20c0-6.1,2.8-10.2,9-10.2
			c7.5,0,8.9,4.9,8.9,10.4v1.8H93v-2.5c0-2.6-0.6-4.1-2.7-4.1s-2.8,1.4-2.8,4.2v21c0,2.6,0.5,4.6,2.8,4.6c2.2,0,2.8-1.8,2.8-4.7
			v-2.2C93.1,44.9,99.3,44.9,99.3,44.9z"/>
		<path class="st0" d="M107.9,43v4.5c0,2.4,0.5,4.6,2.9,4.6s2.7-2.2,2.7-4.4v-0.1h6v0.1c0,3.2-0.7,9.6-8.6,9.6c-7.8,0-9-4.9-9-11.1
			V36.1c0-4.2,1.3-10.6,9-10.6c6.6,0,8.7,4.4,8.7,10.5c0,1.8,0,5.2,0,7H107.9z M113.7,38.2V35c0-2.8-0.7-4.4-2.9-4.4
			c-2,0-2.9,1.4-2.9,4.4v3.1h5.8V38.2z"/>
		<path class="st0" d="M123.1,35.5c0-6.3,0-8.1-0.1-9.5h5.9c0.1,0.7,0.2,1.9,0.2,2.8c0.9-1.8,2.5-3.3,5.7-3.3c3.7,0,6.3,2.3,6.3,8.1
			v23.2H135v-22c0-2.8-1-3.8-2.6-3.8c-2.2,0-3.1,1.2-3.1,5.3v20.4h-6.1L123.1,35.5L123.1,35.5z"/>
		<path class="st0" d="M150.4,47.1v1.4c0,1.9,0.5,3.5,2.5,3.5c1.7,0,2.4-1,2.4-3.1c0-2-0.6-3.4-4.3-5.8c-4.2-2.7-6.3-5-6.3-9.4
			c0-5.2,2.8-8.4,8.2-8.4c5.8,0,8.1,3.2,8.1,8.9v1.2h-6v-1.9c0-2.1-0.7-3-2.2-3s-2.1,1.1-2.1,2.7c0,1.7,0.6,2.5,3.4,4.3
			c5.4,3.4,7.3,5.6,7.3,10.6c0,5.9-3,8.9-8.7,8.9c-6.9,0-8.5-4.3-8.5-8.7v-1.4h6.2V47.1z"/>
		<path class="st0" d="M181.9,35.4v11.8c0,6.6-3.3,10-9.1,10c-6,0-9-3.5-9-9.9V35.2c0-6.7,3.8-9.7,9.1-9.7
			C178.6,25.5,181.9,28.9,181.9,35.4z M170,35.1v12.4c0,2.5,0.8,4.3,2.9,4.3c2,0,2.8-1.5,2.8-4.4V35c0-2.4-0.6-4.1-2.9-4.1
			C170.9,30.9,170,32.4,170,35.1z"/>
		<path class="st0" d="M185.6,36.4c0-5.1,0.1-7.3-0.1-10.4h5.8c0.1,0.6,0.2,3.3,0.2,5c1.2-4.2,3.9-5.4,6.8-5.4v7.6
			c-3.5,0-6.6,0.9-6.6,7.2v16.5h-6.1L185.6,36.4L185.6,36.4z"/>
		<path class="st0" d="M206.1,43v4.5c0,2.4,0.5,4.6,2.9,4.6s2.7-2.2,2.7-4.4v-0.1h6v0.1c0,3.2-0.7,9.6-8.6,9.6c-7.8,0-9-4.9-9-11.1
			V36.1c0-4.2,1.3-10.6,9-10.6c6.6,0,8.7,4.4,8.7,10.5c0,1.8,0,5.2,0,7H206.1z M211.9,38.2V35c0-2.8-0.7-4.4-2.9-4.4
			c-2,0-2.9,1.4-2.9,4.4v3.1h5.8V38.2z"/>
		<path class="st0" d="M238.8,15.3v32.9c0,4.7,0,6.9,0.1,8.5H233c-0.1-0.8-0.2-2.4-0.2-2.9c-1,2-2.4,3.4-5.4,3.4
			c-5.5,0-6.6-4.4-6.6-10.4v-12c0-5.4,2-9.3,7.1-9.3c2.1,0,4,0.6,4.8,2.2V15.3H238.8z M226.9,35.2v12.2c0,2.8,0.7,4.4,2.8,4.4
			c2.5,0,3-2.2,3-5.8v-9.5c0-3.3-0.3-5.5-2.9-5.5C227.7,31,226.9,32.6,226.9,35.2z"/>
		<path class="st0" d="M250.7,17h8.8c6.3,0,9.5,3.1,9.5,10.1v2.3c0,6.6-2.3,10.9-9.9,10.9h-2.4v16.3h-6.1L250.7,17L250.7,17z
			 M256.8,35.4h1.7c3.8,0,4.5-2.2,4.5-6.1v-2c0-2.9-0.5-5.3-3.9-5.3h-2.2v13.4H256.8z"/>
		<path class="st0" d="M272.1,56.8V15.3h6.1v41.5H272.1z"/>
		<path class="st0" d="M298.4,50.5c0,1.9,0,5.1,0.1,6.3H293c-0.1-0.6-0.3-1.8-0.4-2.3c-1,1.9-2.7,2.7-5.1,2.7
			c-4.6,0-6.5-4.3-6.5-8.9v-0.5c0-7.6,5.1-9.6,10.7-9.6c0.2,0,0.4,0,0.7,0v-3.9c0-2.4-0.3-3.8-2.2-3.8c-1.8,0-2.2,1.4-2.2,3.3v0.5
			h-6v-0.4c0-4.5,1.7-8.4,8.5-8.4c5.9,0,8,3.3,8,8.3v16.7H298.4z M292.5,42.8c-0.3,0-0.8,0-1,0c-2.8,0-4.6,1.1-4.6,4.9v0.5
			c0,2.2,0.8,3.7,2.7,3.7c2,0,3-1.4,3-5.6v-3.5H292.5z"/>
		<path class="st0" d="M303.1,35.5c0-6.3,0-8.1-0.1-9.5h5.9c0.1,0.7,0.2,1.9,0.2,2.8c0.9-1.8,2.5-3.3,5.7-3.3c3.7,0,6.3,2.3,6.3,8.1
			v23.2H315v-22c0-2.8-1-3.8-2.6-3.8c-2.2,0-3.1,1.2-3.1,5.3v20.4h-6.1L303.1,35.5L303.1,35.5z"/>
		<path class="st0" d="M330.7,43v4.5c0,2.4,0.5,4.6,2.9,4.6s2.7-2.2,2.7-4.4v-0.1h6v0.1c0,3.2-0.7,9.6-8.6,9.6c-7.8,0-9-4.9-9-11.1
			V36.1c0-4.2,1.3-10.6,9-10.6c6.6,0,8.7,4.4,8.7,10.5c0,1.8,0,5.2,0,7H330.7z M336.6,38.2V35c0-2.8-0.7-4.4-2.9-4.4
			c-2,0-2.9,1.4-2.9,4.4v3.1h5.8V38.2z"/>
		<path class="st0" d="M343.8,26h3.3v-7.4h6.1V26h3.9v5.4h-3.9v18.2c0,1.5,0.2,2.6,2.1,2.6c0.5,0,1.3-0.1,1.7-0.2v4.6
			c-1,0.5-2.6,0.6-3.7,0.6c-3.8,0-6.1-1.2-6.1-6.6V31.3h-3.3V26H343.8z"/>
	</g>
	<g>
		<path class="st1" d="M37.7,66.6c-9.6,0-18.7-3.8-25.5-10.6S1.6,40.1,1.6,30.5S5.4,11.8,12.2,5l2.9,2.9c-6,6-9.4,14.1-9.4,22.6
			c0,8.6,3.3,16.6,9.4,22.6c6,6,14.1,9.4,22.6,9.4c8.6,0,16.6-3.3,22.6-9.4l2.9,2.9C56.4,62.8,47.4,66.6,37.7,66.6z"/>
		<g>
			<path class="st1" d="M38.8,57.5c-15.4,0-27.9-12.5-27.9-27.9s12.5-28,27.9-28s27.9,12.5,27.9,27.9S54.2,57.5,38.8,57.5z
				 M38.8,8.5c-11.6,0-21.1,9.5-21.1,21.1s9.5,21.1,21.1,21.1S60,41.2,60,29.6S50.5,8.5,38.8,8.5z"/>
			
				<rect x="14.3" y="26.2" transform="matrix(0.7071 -0.7071 0.7071 0.7071 -9.5714 36.1375)" class="st1" width="49" height="6.8"/>
		</g>
		<g>
			<rect x="35.9" y="62.7" class="st1" width="4.1" height="15.4"/>
			<rect x="25" y="75.7" class="st1" width="25.9" height="4.1"/>
		</g>
	</g>
</g>
</svg>
